<svg xmlns="http://www.w3.org/2000/svg" width="131" height="131" viewBox="0 0 131 131"><defs><linearGradient id="s116a" x1="48.89" x2="82.55" y1=".63" y2="130.29" gradientUnits="userSpaceOnUse"><stop offset=".01" stop-color="#6dffc6"/><stop offset=".99" stop-color="#3fd2ce"/></linearGradient></defs><g><g><path fill="url(#s116a)" d="M38.766 83.211L49.817 94.27l35.28-35.276-11.06-11.047zm-.424 11.473l8.986.013-8.99-8.992zm37.154-48.197l11.058 11.045 1.673-1.668-11.052-11.051zm55.059 18.973c0 35.807-29.028 64.833-64.834 64.833-35.806 0-64.833-29.026-64.833-64.833C.888 29.654 29.915.626 65.72.626s64.834 29.028 64.834 64.834zM78.68 43.4L89.633 54.36c2.346-3.064 2.115-7.483-.679-10.285-2.71-2.692-7.294-2.97-10.274-.673z"/></g></g></svg>