<svg xmlns="http://www.w3.org/2000/svg" width="131" height="131" viewBox="0 0 131 131"><defs><linearGradient id="db7aa" x1="48.55" x2="82.22" y1=".63" y2="130.29" gradientUnits="userSpaceOnUse"><stop offset=".01" stop-color="#6dffc6"/><stop offset=".99" stop-color="#3fd2ce"/></linearGradient></defs><g><g><path fill="url(#db7aa)" d="M76.926 53.266h19.166v38.03h-62.45v-38.03h19.17c.458 0 .873-.257 1.08-.666l3.652-7.31h14.652l3.653 7.31c.206.41.624.666 1.077.666zm-12.057 8.113c-6.012 0-10.9 4.897-10.9 10.908 0 6.006 4.888 10.892 10.9 10.892 6.01 0 10.905-4.886 10.905-10.892 0-6.01-4.895-10.908-10.905-10.908zm.52-60.753C29.582.626.555 29.654.555 65.46c0 35.807 29.027 64.833 64.834 64.833 35.805 0 64.834-29.026 64.834-64.833 0-35.806-29.029-64.834-64.834-64.834z"/></g></g></svg>