<svg xmlns="http://www.w3.org/2000/svg" width="130" height="131" viewBox="0 0 130 131"><defs><linearGradient id="d5nca" x1="48.05" x2="81.72" y1=".63" y2="130.29" gradientUnits="userSpaceOnUse"><stop offset=".01" stop-color="#6dffc6"/><stop offset=".99" stop-color="#3fd2ce"/></linearGradient></defs><g><g><path fill="url(#d5nca)" d="M64.393 58.834c-5.211 0-9.452 4.243-9.452 9.456 0 5.214 4.24 9.46 9.452 9.46 5.216 0 9.457-4.246 9.457-9.46 0-5.213-4.24-9.456-9.457-9.456zm19.363 2.423l7.615.958v12.152l-7.61.95a1.05 1.05 0 0 0-.845.644c-.147.349-.094.75.14 1.051l4.71 6.058-8.592 8.593-6.057-4.708a1.068 1.068 0 0 0-1.053-.14 1.07 1.07 0 0 0-.643.845l-.954 7.611H58.315l-.952-7.611a1.057 1.057 0 0 0-.642-.846 1.04 1.04 0 0 0-1.053.14l-6.055 4.71-8.596-8.587 4.715-6.065c.233-.301.286-.702.142-1.051a1.051 1.051 0 0 0-.847-.645l-7.611-.949V62.215l7.615-.958c.375-.045.697-.292.843-.642.144-.35.09-.752-.142-1.054l-4.715-6.052 8.596-8.589 6.055 4.709c.303.231.705.291 1.053.143.35-.148.597-.475.642-.848l.952-7.612h12.152l.954 7.612c.048.373.297.7.643.848.35.144.75.086 1.053-.143l6.057-4.719 8.592 8.599-4.71 6.052a1.055 1.055 0 0 0-.14 1.054c.144.35.467.597.84.642zM64.889.627C29.082.626.055 29.653.055 65.46c0 35.807 29.027 64.833 64.834 64.833 35.805 0 64.834-29.026 64.834-64.833 0-35.806-29.029-64.834-64.834-64.834z"/></g></g></svg>