<svg xmlns="http://www.w3.org/2000/svg" width="130" height="131" viewBox="0 0 130 131"><defs><linearGradient id="fy08a" x1="48.39" x2="82.05" y1=".63" y2="130.29" gradientUnits="userSpaceOnUse"><stop offset=".01" stop-color="#6dffc6"/><stop offset=".99" stop-color="#3fd2ce"/></linearGradient></defs><g><g><path fill="url(#fy08a)" d="M61.095 89.778h8.868l.263-1.194h-9.394zm-.79-3.59H70.75l1.057-4.783h-12.55zm5.22-42.973c-9.24 0-16.75 7.517-16.75 16.759 0 5.25 2.436 10.116 6.706 13.339.1.068.181.154.255.249.796.647 2.719 2.464 3.143 5.439h5.456V62.25c0-.639-.252-1.248-.704-1.697a2.363 2.363 0 0 0-1.678-.702h-.01a1.2 1.2 0 1 1-.006-2.399h.016a4.76 4.76 0 0 1 3.373 1.397c.085.092.125.212.205.31.08-.095.115-.21.196-.295a4.745 4.745 0 0 1 3.394-1.412c.658 0 1.202.536 1.202 1.2 0 .658-.544 1.199-1.202 1.199-.64 0-1.242.249-1.695.707a2.346 2.346 0 0 0-.686 1.683v16.76h5.438c.423-2.963 2.336-4.784 3.142-5.428.069-.1.15-.192.253-.266 4.27-3.22 6.721-8.083 6.721-13.333 0-9.242-7.523-16.759-16.769-16.759zm64.53 22.245c0 35.807-29.028 64.833-64.834 64.833-35.806 0-64.833-29.026-64.833-64.833C.388 29.654 29.415.626 65.22.626s64.834 29.028 64.834 64.834zM61.879 93.365h7.3l.25-1.188h-7.814z"/></g></g></svg>